<?xml version="1.0"?>
<svg xmlns="http://www.w3.org/2000/svg" height="512px" viewBox="-82 0 482 482.00001" width="512px" class=""><g><path d="m308.433594 392.769531v39.230469c-.070313 22.0625-17.9375 39.933594-40 40h-218.859375c-22.066407-.066406-39.933594-17.9375-40-40v-39.230469zm0 0" fill="#00acea" data-original="#00ACEA" class="" data-old_color="#00acea" style="fill:#FFFFFF"/><path d="m308.433594 203.578125v189.191406h-298.859375v-189.191406zm-45.179688 103.5v-14.839844c-.003906-9.039062-7.332031-16.367187-16.371094-16.367187h-10.410156v-7.742188c0-9.039062-7.328125-16.367187-16.371094-16.367187h-16.898437v34.617187h-88.402344v-34.617187h-16.898437c-9.039063 0-16.371094 7.328125-16.371094 16.367187v7.742188h-10.410156c-9.039063 0-16.367188 7.328125-16.367188 16.367187v14.839844c0 9.042969 7.328125 16.371094 16.367188 16.371094h10.410156v10.421875c0 9.039062 7.332031 16.367187 16.371094 16.367187h16.898437v-34.628906h88.402344v34.628906h16.898437c9.042969 0 16.371094-7.328125 16.371094-16.367187v-10.421875h10.410156c9.039063 0 16.367188-7.328125 16.371094-16.371094zm0 0" fill="#fedb41" data-original="#FEDB41" class=""/><path d="m308.433594 191.398438v12.179687h-298.859375v-12.179687c.007812-16.046876 4.777343-31.730469 13.699219-45.070313 8.742187-13.210937 21.285156-23.46875 35.96875-29.417969h199.519531c14.785156 5.867188 27.410156 16.144532 36.160156 29.429688 8.832031 13.367187 13.53125 29.039062 13.511719 45.058594zm0 0" fill="#00acea" data-original="#00ACEA" class="" data-old_color="#00acea" style="fill:#FFFFFF"/><path d="m59.242188 79.660156h-9.941407v-59.660156c0-5.523438 4.480469-10 10-10h199.402344c5.523437 0 10 4.476562 10 10v59.660156zm0 0" fill="#00efd1" data-original="#00EFD1" class="" data-old_color="#00efd1" style="fill:#BDDBD8"/><path d="m263.253906 292.238281v14.839844c-.003906 9.042969-7.332031 16.371094-16.371094 16.371094h-10.410156v-47.578125h10.410156c9.039063 0 16.367188 7.328125 16.371094 16.367187zm0 0" fill="#00efd1" data-original="#00EFD1" class="" data-old_color="#00efd1" style="fill:#BDDBD8"/><path d="m59.242188 79.660156h199.519531v37.25h-199.519531zm0 0" fill="#fedb41" data-original="#FEDB41" class=""/><g fill="#00efd1"><path d="m236.472656 323.449219v10.421875c0 9.039062-7.328125 16.367187-16.371094 16.367187h-16.898437v-98.476562h16.898437c9.042969 0 16.371094 7.328125 16.371094 16.367187zm0 0" data-original="#000000" class="active-path" data-old_color="#000000" style="fill:#BDDBD8"/><path d="m203.203125 286.378906v29.230469h-88.402344v-29.230469zm0 0" data-original="#000000" class="active-path" data-old_color="#000000" style="fill:#BDDBD8"/><path d="m114.800781 315.609375v34.628906h-16.898437c-9.039063 0-16.371094-7.328125-16.371094-16.367187v-65.742188c0-9.039062 7.332031-16.367187 16.371094-16.367187h16.898437zm0 0" data-original="#000000" class="active-path" data-old_color="#000000" style="fill:#BDDBD8"/><path d="m81.53125 275.871094v47.578125h-10.410156c-9.039063 0-16.367188-7.328125-16.367188-16.371094v-14.839844c0-9.039062 7.328125-16.367187 16.367188-16.367187zm0 0" data-original="#000000" class="active-path" data-old_color="#000000" style="fill:#BDDBD8"/></g><path d="m15.054688 140.773438c-9.941407 15.003906-15.179688 32.628906-15.05078175 50.625v240.632812c-.08593745 27.476562 22.09374975 49.832031 49.57031275 49.96875h218.886719c27.476562-.152344 49.640624-22.523438 49.542968-50v-240.601562c.15625-17.957032-5.007812-35.558594-14.84375-50.585938-8.433594-13.035156-20.234375-23.539062-34.15625-30.40625v-20.75c5.4375-.199219 9.800782-4.5625 10-10v-59.65625c-.15625-11.097656-9.203125-20.0117188-20.300781-20h-199.402344c-11.097656-.0117188-20.144531 8.902344-20.296875 20v59.660156c.199219 5.4375 4.558594 9.800782 10 10v20.785156c-14 6.820313-25.195312 17.203126-33.949218 30.328126zm233.949218-50.773438v17h-180v-17zm-229 124h278v169h-278zm248.429688 248h-218.832032c-7.902343-.046875-15.464843-3.238281-21.019531-8.863281-5.550781-5.628907-8.636719-13.230469-8.578125-21.136719v-29h278v28.96875c.0625 7.90625-3.015625 15.511719-8.5625 21.144531-5.546875 5.632813-13.105468 8.832031-21.007812 8.886719zm17.941406-310.089844c7.691406 11.726563 11.738281 25.46875 11.628906 39.488282v2.601562h-278v-2.601562c-.085937-14.039063 4.023438-27.78125 11.796875-39.472657 7.464844-11.183593 17.472657-19.925781 29.441407-24.925781h195.523437c12.140625 5.148438 22.457031 13.828125 29.609375 24.910156zm-227.371094-131.910156h200v50h-200zm0 0" fill="#083863" data-original="#083863" class="" data-old_color="#083863" style="fill:#000000"/><path d="m246.882812 266h-.515624c-1.011719-13.695312-12.535157-24.222656-26.265626-24h-16.898437c-2.648437-.0625-5.210937.933594-7.125 2.765625-1.914063 1.828125-3.019531 4.347656-3.074219 6.996094v24.238281h-68v-24.238281c-.058594-2.648438-1.164062-5.167969-3.078125-6.996094-1.914062-1.832031-4.476562-2.828125-7.125-2.765625h-16.898437c-13.730469-.222656-25.253906 10.304688-26.265625 24h-.515625c-6.949219-.011719-13.621094 2.753906-18.523438 7.679688-4.90625 4.925781-7.640625 11.609374-7.59375 18.558593v14.839844c-.03125 6.921875 2.714844 13.5625 7.625 18.433594 4.914063 4.875 11.574219 7.574219 18.492188 7.488281h.882812v.871094c-.089844 6.914062 2.601563 13.578125 7.472656 18.492187 4.871094 4.914063 11.507813 7.664063 18.425782 7.636719h16.898437c2.648438.0625 5.210938-.933594 7.125-2.765625 1.914063-1.828125 3.019531-4.347656 3.078125-6.996094v-24.238281h68v24.238281c.054688 2.648438 1.160156 5.167969 3.074219 6.996094 1.914063 1.832031 4.476563 2.828125 7.125 2.765625h16.898437c6.917969.027344 13.558594-2.722656 18.425782-7.636719 4.871094-4.914062 7.5625-11.578125 7.476562-18.492187v-.871094h.878906c6.917969.085938 13.578126-2.613281 18.492188-7.488281 4.910156-4.871094 7.660156-11.511719 7.628906-18.433594v-14.839844c.042969-6.949219-2.691406-13.632812-7.597656-18.558593-4.902344-4.925782-11.570312-7.691407-18.523438-7.679688zm-175.761718 47c-1.613282.089844-3.191406-.5-4.351563-1.621094-1.164062-1.125-1.804687-2.683594-1.765625-4.300781v-14.839844c-.050781-1.648437.574219-3.246093 1.730469-4.421875 1.152344-1.179687 2.738281-1.835937 4.386719-1.816406h.882812v27zm33.882812 27h-7.101562c-1.617188.035156-3.171875-.609375-4.292969-1.773438-1.121094-1.164062-1.703125-2.742187-1.605469-4.355468v-65.742188c-.097656-1.613281.484375-3.191406 1.605469-4.355468 1.121094-1.164063 2.675781-1.808594 4.292969-1.773438h7.101562zm20-34v-10h68v10zm101 27.871094c.09375 1.613281-.488281 3.191406-1.609375 4.355468-1.121093 1.164063-2.675781 1.808594-4.292969 1.773438h-7.097656v-78h7.097656c1.617188-.035156 3.171876.609375 4.292969 1.773438 1.121094 1.164062 1.703125 2.742187 1.609375 4.355468zm27-26.792969c.035156 1.617187-.605468 3.175781-1.769531 4.300781-1.160156 1.121094-2.738281 1.710938-4.351563 1.621094h-.878906v-27h.878906c1.648438-.019531 3.234376.636719 4.390626 1.816406 1.152343 1.175782 1.777343 2.773438 1.730468 4.421875zm0 0" fill="#083863" data-original="#083863" class="" data-old_color="#083863" style="fill:#000000"/></g> </svg>
